<?xml version="1.0" encoding="UTF-8"?>
<!DOCTYPE svg PUBLIC "-//W3C//DTD SVG 1.1//EN" "http://www.w3.org/Graphics/SVG/1.1/DTD/svg11.dtd">
<svg version="1.1" xmlns="http://www.w3.org/2000/svg" xmlns:xlink="http://www.w3.org/1999/xlink" x="0" y="0" width="660.487" height="62.87" viewBox="0, 0, 660.487, 62.87">
  <g id="Layer_1" transform="translate(-65.382, -317.383)">
    <path d="M140.853,317.383 L141.999,317.636 C147.805,319.711 150.747,325.285 153.514,330.424 C156.22,335.714 159.868,340.388 163.654,344.929 C166.707,341.316 170.278,338.295 175.057,337.575 C185.802,338.1 196.84,365.298 215.718,378.782 C218.592,380.835 214.567,378.813 209.011,374.676 C202.579,369.885 186.884,344.063 174.134,344.651 C160.895,345.262 148.328,367.068 139.772,375.207 C134.16,380.545 124.388,381.812 133.065,378.218 C134.584,377.563 136.02,376.698 137.287,375.63 C134.71,374.863 132.415,373.166 130.261,371.606 C123.829,366.816 114.087,354.941 104.369,355.215 C91.122,355.588 86.54,370.38 74.458,374.071 C62.14,377.835 63.386,375.954 72.063,372.36 C85.613,366.749 94.829,345.311 106.163,345.865 C107.773,345.892 108.846,346.325 110.248,347.015 C116.954,339.437 122.955,331.295 129.917,323.941 C132.893,320.961 136.411,317.591 140.853,317.383 z M139.457,328.694 C127.552,330.148 119.52,339.738 111.973,348.1 C112.719,348.753 113.535,349.333 114.212,350.057 C117.665,353.749 120.222,358.218 123.443,362.102 C127.398,366.871 131.818,370.904 136.735,374.647 C137.341,375.106 137.06,374.859 137.581,375.383 C147.239,366.986 154.136,356.044 162.388,346.372 C156.128,339.41 149.48,329.962 139.457,328.694 z" fill="#FFFFFF"/>
    <g>
      <path d="M243.388,361.818 L241.12,355.014 L231.724,355.014 L229.528,361.818 L225.388,361.818 L233.956,336.69 L239.068,336.69 L247.636,361.818 z M236.512,340.434 L236.332,340.434 L232.696,351.522 L240.112,351.522 z" fill="#FFFFFF"/>
      <path d="M251.524,361.818 L251.524,336.69 L255.592,336.69 L255.592,358.218 L265.816,358.218 L265.816,361.818 z" fill="#FFFFFF"/>
      <path d="M269.992,361.818 L269.992,336.69 L280.792,336.69 Q284.284,336.69 286.192,338.742 Q288.1,340.794 288.1,344.25 Q288.1,347.706 286.192,349.758 Q284.284,351.81 280.792,351.81 L274.06,351.81 L274.06,361.818 z M274.06,348.246 L280.54,348.246 Q282.088,348.246 282.952,347.436 Q283.816,346.626 283.816,345.114 L283.816,343.386 Q283.816,341.874 282.952,341.064 Q282.088,340.254 280.54,340.254 L274.06,340.254 z" fill="#FFFFFF"/>
      <path d="M291.484,361.818 L291.484,358.506 L294.904,358.506 L294.904,340.002 L291.484,340.002 L291.484,336.69 L302.428,336.69 L302.428,340.002 L298.972,340.002 L298.972,358.506 L302.428,358.506 L302.428,361.818 z" fill="#FFFFFF"/>
      <path d="M314.308,347.922 L311.536,342.594 L311.428,342.594 L311.428,361.818 L307.54,361.818 L307.54,336.69 L312.076,336.69 L320.284,350.586 L323.056,355.914 L323.164,355.914 L323.164,336.69 L327.052,336.69 L327.052,361.818 L322.516,361.818 z" fill="#FFFFFF"/>
      <path d="M333.244,361.818 L333.244,336.69 L349.336,336.69 L349.336,340.29 L337.312,340.29 L337.312,347.274 L348.22,347.274 L348.22,350.874 L337.312,350.874 L337.312,358.218 L349.336,358.218 L349.336,361.818 z" fill="#FFFFFF"/>
      <path d="M363.088,336.69 L371.98,336.69 Q374.392,336.69 376.354,337.482 Q378.316,338.274 379.702,339.84 Q381.088,341.406 381.844,343.764 Q382.6,346.122 382.6,349.254 Q382.6,352.386 381.844,354.744 Q381.088,357.102 379.702,358.668 Q378.316,360.234 376.354,361.026 Q374.392,361.818 371.98,361.818 L363.088,361.818 z M371.98,358.218 Q374.788,358.218 376.516,356.454 Q378.244,354.69 378.244,351.27 L378.244,347.238 Q378.244,343.818 376.516,342.054 Q374.788,340.29 371.98,340.29 L367.156,340.29 L367.156,358.218 z" fill="#FFFFFF"/>
      <path d="M402.544,361.818 L400.276,355.014 L390.88,355.014 L388.684,361.818 L384.544,361.818 L393.112,336.69 L398.224,336.69 L406.792,361.818 z M395.668,340.434 L395.488,340.434 L391.852,351.522 L399.268,351.522 z" fill="#FFFFFF"/>
      <path d="M417.664,340.29 L417.664,361.818 L413.596,361.818 L413.596,340.29 L406.108,340.29 L406.108,336.69 L425.152,336.69 L425.152,340.29 z" fill="#FFFFFF"/>
      <path d="M442.468,361.818 L440.2,355.014 L430.804,355.014 L428.608,361.818 L424.468,361.818 L433.036,336.69 L438.148,336.69 L446.716,361.818 z M435.592,340.434 L435.412,340.434 L431.776,351.522 L439.192,351.522 z" fill="#FFFFFF"/>
      <path d="M460.944,361.818 L460.944,336.69 L476.28,336.69 L476.28,339.354 L463.968,339.354 L463.968,347.778 L475.56,347.778 L475.56,350.442 L463.968,350.442 L463.968,359.154 L476.28,359.154 L476.28,361.818 z" fill="#FFFFFF"/>
      <path d="M479.34,361.818 L486.216,352.458 L479.628,343.242 L483.012,343.242 L487.728,350.154 L487.836,350.154 L492.732,343.242 L495.936,343.242 L489.384,352.242 L496.08,361.818 L492.696,361.818 L487.872,354.546 L487.764,354.546 L482.544,361.818 z" fill="#FFFFFF"/>
      <path d="M499.896,343.242 L502.776,343.242 L502.776,346.266 L502.92,346.266 Q503.64,344.502 505.026,343.656 Q506.412,342.81 508.356,342.81 Q510.084,342.81 511.488,343.494 Q512.892,344.178 513.882,345.438 Q514.872,346.698 515.394,348.498 Q515.916,350.298 515.916,352.53 Q515.916,354.762 515.394,356.562 Q514.872,358.362 513.882,359.622 Q512.892,360.882 511.488,361.566 Q510.084,362.25 508.356,362.25 Q504.576,362.25 502.92,358.794 L502.776,358.794 L502.776,369.018 L499.896,369.018 z M507.564,359.658 Q510.012,359.658 511.416,358.128 Q512.82,356.598 512.82,354.114 L512.82,350.946 Q512.82,348.462 511.416,346.932 Q510.012,345.402 507.564,345.402 Q506.592,345.402 505.71,345.672 Q504.828,345.942 504.18,346.41 Q503.532,346.878 503.154,347.544 Q502.776,348.21 502.776,348.966 L502.776,355.878 Q502.776,356.778 503.154,357.48 Q503.532,358.182 504.18,358.668 Q504.828,359.154 505.71,359.406 Q506.592,359.658 507.564,359.658 z" fill="#FFFFFF"/>
      <path d="M527.76,362.25 Q525.852,362.25 524.322,361.566 Q522.792,360.882 521.694,359.604 Q520.596,358.326 520.002,356.544 Q519.408,354.762 519.408,352.53 Q519.408,350.334 520.002,348.534 Q520.596,346.734 521.694,345.456 Q522.792,344.178 524.322,343.494 Q525.852,342.81 527.76,342.81 Q529.632,342.81 531.108,343.494 Q532.584,344.178 533.628,345.384 Q534.672,346.59 535.23,348.246 Q535.788,349.902 535.788,351.882 L535.788,353.25 L522.432,353.25 L522.432,354.114 Q522.432,355.302 522.81,356.328 Q523.188,357.354 523.89,358.11 Q524.592,358.866 525.618,359.298 Q526.644,359.73 527.94,359.73 Q529.704,359.73 531.018,358.902 Q532.332,358.074 533.052,356.526 L535.104,358.002 Q534.204,359.91 532.296,361.08 Q530.388,362.25 527.76,362.25 z M527.76,345.222 Q526.572,345.222 525.6,345.636 Q524.628,346.05 523.926,346.806 Q523.224,347.562 522.828,348.588 Q522.432,349.614 522.432,350.838 L522.432,351.09 L532.692,351.09 L532.692,350.694 Q532.692,348.21 531.342,346.716 Q529.992,345.222 527.76,345.222 z" fill="#FFFFFF"/>
      <path d="M540.54,361.818 L540.54,343.242 L543.42,343.242 L543.42,346.662 L543.6,346.662 Q544.104,345.33 545.4,344.286 Q546.696,343.242 548.964,343.242 L550.08,343.242 L550.08,346.122 L548.388,346.122 Q546.048,346.122 544.734,347.004 Q543.42,347.886 543.42,349.218 L543.42,361.818 z" fill="#FFFFFF"/>
      <path d="M558,361.818 Q556.488,361.818 555.714,360.972 Q554.94,360.126 554.94,358.758 L554.94,345.762 L551.88,345.762 L551.88,343.242 L553.608,343.242 Q554.544,343.242 554.886,342.864 Q555.228,342.486 555.228,341.55 L555.228,338.094 L557.82,338.094 L557.82,343.242 L561.888,343.242 L561.888,345.762 L557.82,345.762 L557.82,359.298 L561.6,359.298 L561.6,361.818 z" fill="#FFFFFF"/>
      <path d="M575.316,361.818 L575.316,336.69 L590.652,336.69 L590.652,339.354 L578.34,339.354 L578.34,347.778 L589.932,347.778 L589.932,350.442 L578.34,350.442 L578.34,359.154 L590.652,359.154 L590.652,361.818 z" fill="#FFFFFF"/>
      <path d="M593.712,361.818 L600.588,352.458 L594,343.242 L597.384,343.242 L602.1,350.154 L602.208,350.154 L607.104,343.242 L610.308,343.242 L603.756,352.242 L610.452,361.818 L607.068,361.818 L602.244,354.546 L602.136,354.546 L596.916,361.818 z" fill="#FFFFFF"/>
      <path d="M620.748,362.25 Q618.804,362.25 617.256,361.566 Q615.708,360.882 614.646,359.622 Q613.584,358.362 613.026,356.562 Q612.468,354.762 612.468,352.53 Q612.468,350.298 613.026,348.498 Q613.584,346.698 614.646,345.438 Q615.708,344.178 617.256,343.494 Q618.804,342.81 620.748,342.81 Q623.52,342.81 625.194,344.016 Q626.868,345.222 627.696,347.166 L625.284,348.39 Q624.78,346.95 623.628,346.158 Q622.476,345.366 620.748,345.366 Q619.452,345.366 618.48,345.78 Q617.508,346.194 616.86,346.932 Q616.212,347.67 615.888,348.696 Q615.564,349.722 615.564,350.946 L615.564,354.114 Q615.564,356.562 616.878,358.128 Q618.192,359.694 620.748,359.694 Q624.24,359.694 625.788,356.454 L627.876,357.858 Q626.976,359.874 625.194,361.062 Q623.412,362.25 620.748,362.25 z" fill="#FFFFFF"/>
      <path d="M631.944,335.178 L634.824,335.178 L634.824,346.266 L634.968,346.266 Q635.652,344.682 636.894,343.746 Q638.136,342.81 640.224,342.81 Q643.104,342.81 644.778,344.664 Q646.452,346.518 646.452,349.902 L646.452,361.818 L643.572,361.818 L643.572,350.406 Q643.572,345.402 639.36,345.402 Q638.496,345.402 637.686,345.618 Q636.876,345.834 636.228,346.266 Q635.58,346.698 635.202,347.364 Q634.824,348.03 634.824,348.93 L634.824,361.818 L631.944,361.818 z" fill="#FFFFFF"/>
      <path d="M665.892,361.818 Q664.272,361.818 663.57,360.954 Q662.868,360.09 662.688,358.794 L662.508,358.794 Q661.896,360.522 660.492,361.386 Q659.088,362.25 657.144,362.25 Q654.192,362.25 652.554,360.738 Q650.916,359.226 650.916,356.634 Q650.916,354.006 652.842,352.602 Q654.768,351.198 658.836,351.198 L662.508,351.198 L662.508,349.362 Q662.508,347.382 661.428,346.338 Q660.348,345.294 658.116,345.294 Q656.424,345.294 655.29,346.05 Q654.156,346.806 653.4,348.066 L651.672,346.446 Q652.428,344.934 654.084,343.872 Q655.74,342.81 658.26,342.81 Q661.644,342.81 663.516,344.466 Q665.388,346.122 665.388,349.074 L665.388,359.298 L667.512,359.298 L667.512,361.818 z M657.612,359.802 Q658.692,359.802 659.592,359.55 Q660.492,359.298 661.14,358.83 Q661.788,358.362 662.148,357.75 Q662.508,357.138 662.508,356.418 L662.508,353.358 L658.692,353.358 Q656.208,353.358 655.074,354.078 Q653.94,354.798 653.94,356.166 L653.94,356.922 Q653.94,358.29 654.93,359.046 Q655.92,359.802 657.612,359.802 z" fill="#FFFFFF"/>
      <path d="M671.616,361.818 L671.616,343.242 L674.496,343.242 L674.496,346.266 L674.64,346.266 Q675.324,344.682 676.566,343.746 Q677.808,342.81 679.896,342.81 Q682.776,342.81 684.45,344.664 Q686.124,346.518 686.124,349.902 L686.124,361.818 L683.244,361.818 L683.244,350.406 Q683.244,345.402 679.032,345.402 Q678.168,345.402 677.358,345.618 Q676.548,345.834 675.9,346.266 Q675.252,346.698 674.874,347.364 Q674.496,348.03 674.496,348.93 L674.496,361.818 z" fill="#FFFFFF"/>
      <path d="M707.724,363.87 Q707.724,366.75 705.474,368.1 Q703.224,369.45 698.724,369.45 Q694.368,369.45 692.46,368.262 Q690.552,367.074 690.552,364.878 Q690.552,363.366 691.344,362.52 Q692.136,361.674 693.504,361.278 L693.504,360.882 Q691.848,360.09 691.848,358.29 Q691.848,356.886 692.748,356.148 Q693.648,355.41 695.052,355.05 L695.052,354.906 Q693.396,354.114 692.478,352.638 Q691.56,351.162 691.56,349.218 Q691.56,347.814 692.064,346.626 Q692.568,345.438 693.486,344.592 Q694.404,343.746 695.682,343.278 Q696.96,342.81 698.544,342.81 Q700.524,342.81 702.072,343.53 L702.072,343.206 Q702.072,342.126 702.576,341.424 Q703.08,340.722 704.232,340.722 L707.004,340.722 L707.004,343.242 L703.476,343.242 L703.476,344.43 Q704.484,345.294 705.042,346.5 Q705.6,347.706 705.6,349.218 Q705.6,350.622 705.096,351.81 Q704.592,352.998 703.674,353.844 Q702.756,354.69 701.46,355.158 Q700.164,355.626 698.58,355.626 Q697.68,355.626 696.78,355.446 Q695.844,355.698 695.088,356.184 Q694.332,356.67 694.332,357.534 Q694.332,358.362 695.124,358.65 Q695.916,358.938 697.176,358.938 L701.136,358.938 Q704.592,358.938 706.158,360.252 Q707.724,361.566 707.724,363.87 z M705.024,364.086 Q705.024,362.97 704.178,362.304 Q703.332,361.638 701.172,361.638 L694.98,361.638 Q693.252,362.43 693.252,364.158 Q693.252,365.382 694.17,366.246 Q695.088,367.11 697.284,367.11 L699.948,367.11 Q702.36,367.11 703.692,366.354 Q705.024,365.598 705.024,364.086 z M698.58,353.322 Q700.416,353.322 701.496,352.44 Q702.576,351.558 702.576,349.722 L702.576,348.714 Q702.576,346.878 701.496,345.996 Q700.416,345.114 698.58,345.114 Q696.744,345.114 695.664,345.996 Q694.584,346.878 694.584,348.714 L694.584,349.722 Q694.584,351.558 695.664,352.44 Q696.744,353.322 698.58,353.322 z" fill="#FFFFFF"/>
      <path d="M717.84,362.25 Q715.932,362.25 714.402,361.566 Q712.872,360.882 711.774,359.604 Q710.676,358.326 710.082,356.544 Q709.488,354.762 709.488,352.53 Q709.488,350.334 710.082,348.534 Q710.676,346.734 711.774,345.456 Q712.872,344.178 714.402,343.494 Q715.932,342.81 717.84,342.81 Q719.712,342.81 721.188,343.494 Q722.664,344.178 723.708,345.384 Q724.752,346.59 725.31,348.246 Q725.868,349.902 725.868,351.882 L725.868,353.25 L712.512,353.25 L712.512,354.114 Q712.512,355.302 712.89,356.328 Q713.268,357.354 713.97,358.11 Q714.672,358.866 715.698,359.298 Q716.724,359.73 718.02,359.73 Q719.784,359.73 721.098,358.902 Q722.412,358.074 723.132,356.526 L725.184,358.002 Q724.284,359.91 722.376,361.08 Q720.468,362.25 717.84,362.25 z M717.84,345.222 Q716.652,345.222 715.68,345.636 Q714.708,346.05 714.006,346.806 Q713.304,347.562 712.908,348.588 Q712.512,349.614 712.512,350.838 L712.512,351.09 L722.772,351.09 L722.772,350.694 Q722.772,348.21 721.422,346.716 Q720.072,345.222 717.84,345.222 z" fill="#FFFFFF"/>
    </g>
  </g>
</svg>
